<?xml version="1.0" encoding="utf-8"?>
<!-- Generator: Adobe Illustrator 21.1.0, SVG Export Plug-In . SVG Version: 6.00 Build 0)  -->
<svg version="1.1" id="レイヤー_1" xmlns="http://www.w3.org/2000/svg" xmlns:xlink="http://www.w3.org/1999/xlink" x="0px"
	 y="0px" viewBox="0 0 104.6 59.8" style="enable-background:new 0 0 104.6 59.8;" xml:space="preserve">
<style type="text/css">
	.st0{fill:#FFFFFF;}
</style>
<g>
	<path class="st0" d="M25.4,24.6H14.3c-6.6,0-8.2-1.2-9.2-2.2c-1,1.2-2,2-3.5,3l-1.3-1.5c1.8-1,2.9-1.9,3.6-2.9
		c-1.1-2-1.5-3.3-2.2-7.1l1.8-0.2c0.1,0.8,0.5,3.7,1.4,5.6c0.9-1.9,1.4-3.8,1.7-7.7H3.8C3.6,12,3.5,12.1,2.9,13l-1.8-0.9
		c2.8-4,4.4-7.5,4.9-8.8H1.1V1.6H8l0.7,0.7c-1.5,3.5-2.9,6-3.9,7.7h3.9C8.4,12.6,8,17.9,6.1,21.1c1.8,1.4,3.6,1.8,7.5,1.8
		c4.2,0,8.4-0.2,12.5-0.5L25.4,24.6z M23.2,8.2v3.9h-5.6V14H23v1.7h-5.4V18h6.8v1.6h-6.8v2.6h-1.9v-2.6H9.4V18h6.3v-2.3H11V14h4.7
		v-1.8h-5v-1.7h5V8.2H8.8V6.5h6.9v-2h-5V2.8h5V0l2,0.2c0.2,0,0.4,0.1,0.4,0.3S17.9,0.8,17.6,1v1.9h5.6v3.7h2.4v1.7h-2.4V8.2z
		 M21.3,4.5h-3.7v2.1h3.7V4.5z M21.3,8.2h-3.7v2.2h3.7V8.2z"/>
</g>
<g>
	<path class="st0" d="M42,4.4c1,1.2,1.2,1.5,1.6,1.9l-1.8,0.8c-0.6-0.8-1.2-1.6-2.1-2.7h-1.4c-1.1,1.9-1.6,2.5-2,2.9h8.3V9h-3.3v3.3
		c1.6-0.2,1.8-0.3,3.5-0.6l-0.2,1.7c-1.7,0.4-4.1,0.8-6.2,1.1c-1,0.2-1.2,0.2-2,0.3c-0.4,0.5-0.4,0.6-0.6,0.6
		c-0.2,0-0.3-0.3-0.3-0.4l-0.3-2c1,0.1,1.5,0,4.3-0.4V9.1H36V7.7l-1.8-1.1c1.9-2.3,2.9-3.9,3.7-6.5l2,0.6c0.2,0.1,0.4,0.1,0.4,0.3
		c0,0.3-0.4,0.4-0.7,0.5C39.4,2,39.4,2,39,2.7h8.1v1.7H42z M57.9,24.4c-1.8-0.7-5.4-2.1-9.5-5.2v6.3h-2v-6.6c-3.6,3.1-8,5-9.4,5.5
		l-1.6-1.5c4.8-1.6,7-3.1,9.5-5.1h-9.7V16h11.1v-1.9l2,0.2c0.4,0,0.5,0.1,0.5,0.3c0,0.3-0.4,0.5-0.5,0.6V16h11v1.8h-9.9
		c2.5,1.9,5.4,3.6,10,4.9L57.9,24.4z M57.4,14.1h-1.8c-1.2,0-1.9-0.2-1.9-1.7V9H50c-0.1,1.4-0.2,3.5-2.2,5.1l-1.8-1
		c1.2-0.7,2.4-1.6,2.2-5.8h7.2v4.2c0,0.8,0.2,0.9,1,0.9h0.5c0.9,0,1,0,1.5-2.5l1.6,0.8C59.3,14.1,59,14.1,57.4,14.1z M54.6,4.5
		c0.5,0.7,0.8,1,1.1,1.6L54,6.9c-0.4-0.7-0.7-1-1.7-2.4h-2.5c-0.8,1.4-1.1,2-1.8,3l-1.7-1c1.4-1.9,2.6-4.3,3.3-6.4l2,0.7
		C52,0.8,52,1,52,1c0,0.2-0.3,0.3-0.8,0.4c-0.3,0.7-0.4,0.9-0.7,1.4h9.2v1.6L54.6,4.5L54.6,4.5z M52.3,13.4
		c-0.5-0.5-1.6-1.5-2.4-2.1l1-1.2c0.2,0.1,1.7,1.3,2.4,2.2L52.3,13.4z"/>
</g>
<g>
	<path class="st0" d="M73.4,2.9c-0.5,1.3-1,2.6-1.5,5.6c-0.3,1.8-0.5,3.7-0.5,5.6c0,1.6,0.1,2.8,0.3,4.1c0.1,0.9,0.1,1,0.2,1.5
		c0.4-0.9,0.6-1.5,1.5-4.2l1.6,1.2c-0.4,1-1.1,2.6-1.9,6.5l-1.8,0.2c-1.2-2.9-1.8-5.2-1.8-9c0-2.4,0.3-5.8,0.7-7.3
		c0.6-2.6,0.7-2.9,0.8-3.5c0.2-1.2,0.3-1.4,0.3-1.7L73.4,2.9z M79.4,15.8c0,0.3,0.1,1.6,0.1,1.9c0.5,2.1,2.2,2.3,4.3,2.3
		c3.4,0,5.2-0.5,7.1-1.2V21c-1.5,0.4-3.1,0.7-7.2,0.7c-3.6,0-6-0.3-6-5.7L79.4,15.8z M78.7,4.1c0.7,0.1,1.9,0.3,4.1,0.3
		c1.4,0,4.2-0.3,6.8-1.2l0.1,2.2c-4.3,0.7-6.4,0.7-9.3,0.7c-0.7,0-1,0-1.4-0.1L78.7,4.1z"/>
</g>
<g>
	<path class="st0" d="M97.7,19.3c2.6,1.7,4.1,3.3,5.2,4.6l-1.3,1.5c-1.6-2.3-2.7-3.4-4.8-5.1L97.7,19.3z"/>
</g>
<g>
	<path class="st0" d="M4.1,46.5C3,45.6,1.8,44.8,0,43.9l1-1.7c2.3,1.1,3.4,2,4.1,2.6L4.1,46.5z M3.3,58.1c0.2,0.4,0.2,0.6,0.2,0.8
		c0,0.3-0.2,0.4-0.3,0.4c-0.2,0-0.4-0.1-0.5-0.2l-2.1-1.2c1.3-2,3.3-5.3,5.1-10.7L7.3,49C6.2,52,5.2,54.5,3.3,58.1z M6.5,38.3
		C6,38,3.8,36.5,2.4,35.9l1-1.8c1.5,0.7,2.7,1.3,4.1,2.4L6.5,38.3z M5.6,58.6v-1.8h2.9v-8.1h15.8v8.1h1.6v1.8
		C25.9,58.6,5.6,58.6,5.6,58.6z M9.6,46.6V35.2H23v11.5H9.6V46.6z M13.1,50.2h-2.7v6.5h2.7V50.2z M21,37h-9.4v3.1H21V37z M21,41.7
		h-9.4v3.1H21V41.7z M17.7,50.2H15v6.5h2.7V50.2z M22.3,50.2h-2.7v6.5h2.7V50.2z"/>
</g>
<g>
	<path class="st0" d="M39.4,43.7c-0.1,4-0.1,10.9-3.2,15.8l-1.9-0.7c1.9-3.2,3-6.7,3-14.8c0-1.1-0.1-6.2-0.1-7.1h9.5v-3.1l2.2,0.1
		c0.2,0,0.6,0,0.6,0.3s-0.4,0.5-0.6,0.6v2h10.9v1.8H39.3c0.1,1.5,0.1,2,0.1,3.3h4.5v-2.6l2.1,0.1c0.3,0,0.6,0.1,0.6,0.3
		c0,0.3-0.3,0.4-0.7,0.7V42h5.6v-2.6l2,0.1c0.3,0,0.6,0.1,0.6,0.3s-0.1,0.3-0.6,0.6V42h4.9v1.7h-4.9v3.7h-9.6v-3.7H39.4z M40.3,58.1
		c4.1-0.9,5.7-1.4,7.6-2.4c-1.7-1.4-2.7-2.9-3.1-3.6l1.7-0.8c0.8,1.2,1.6,2.3,3,3.4c1.8-1.2,2.9-2.5,3.7-3.6H40.9v-1.8h14.6l0.7,0.8
		c-0.8,1.3-2.3,3.5-5,5.6c2.1,1,4.7,1.6,8.3,1.8l-1,2.1c-5.4-0.7-7.4-1.6-9.1-2.7c-2.5,1.4-5.2,2.4-8,3L40.3,58.1z M51.5,45.7v-2
		h-5.6v2H51.5z"/>
</g>
<g>
	<path class="st0" d="M87.3,58c-2.8,0.5-5.8,0.5-6.4,0.5c-0.9,0-6.4,0-6.4-4.4c0-3.7,3.6-5.8,6.3-7.2c-0.1-0.8-0.3-2.3-1.6-2.3
		c-2.6,0-4.8,3.3-6.6,5.8l-1.8-1c2.9-3.2,4.1-5.2,5.3-8.3c-2.5,0.2-3.6,0.2-4.4,0.1L71.3,39c0.9,0.1,1.7,0.2,3.3,0.2
		c1.1,0,1.7-0.1,2.2-0.1c0.7-2.2,1-3.3,1.2-4.4l2.4,0.4c-0.3,1-0.6,1.8-1.3,3.8c3.6-0.6,5.4-1.4,6.5-1.9l0.1,2.2
		c-3.6,1-5.2,1.3-7.4,1.7c-0.8,2.2-1,2.6-1.3,3.3c0.4-0.3,1.1-1,2.4-1c2.4,0,2.8,2.2,3,3.1c3.6-1.6,4.2-1.9,5.8-2.8l0.5,2.2
		c-3.6,1.3-4.3,1.5-6.2,2.4c0.1,2.9,0.1,3.6,0.2,5.8h-2c0-0.3,0.1-1.3,0.1-2c0.1-1.2,0.1-1.9,0.1-2.9c-2.2,1.4-4.3,2.9-4.3,5
		c0,2.7,3.1,2.9,4.3,2.9c2,0,4.4-0.3,6.2-1L87.3,58z"/>
</g>
<g>
	<path class="st0" d="M104.6,55.4c0,2.1-1.8,3.9-3.9,3.9s-3.9-1.8-3.9-3.9c0-2.2,1.8-3.9,3.9-3.9S104.6,53.2,104.6,55.4z M97.9,55.4
		c0,1.6,1.3,2.9,2.9,2.9s2.9-1.3,2.9-2.9c0-1.6-1.3-2.9-2.9-2.9S97.9,53.8,97.9,55.4z"/>
</g>
</svg>
