<?xml version="1.0" encoding="utf-8"?>
<!-- Generator: Adobe Illustrator 21.1.0, SVG Export Plug-In . SVG Version: 6.00 Build 0)  -->
<svg version="1.1" id="レイヤー_1" xmlns="http://www.w3.org/2000/svg" xmlns:xlink="http://www.w3.org/1999/xlink" x="0px"
	 y="0px" viewBox="0 0 411 157.8" style="enable-background:new 0 0 411 157.8;" xml:space="preserve">
<style type="text/css">
	.st0{fill:#6D6E70;}
</style>
<path class="st0" d="M253,0.8c-0.3,0-0.6,0.2-0.6,0.6v44.1c0,0.3,0.3,0.6,0.6,0.6h24.6c0.3,0,0.6-0.2,0.6-0.6v-4.7
	c0-0.3-0.3-0.6-0.6-0.6c-3.3,0-18.2,0-18.6,0c0-0.5,0-13.4,0-13.9c0.4,0,14.5,0,17.5,0c0.3,0,0.6-0.2,0.6-0.6V21
	c0-0.3-0.3-0.6-0.6-0.6c-3.1,0-17.1,0-17.5,0c0-6.7,0-7.2,0-13.8c5.2,0,0,0,18.7,0c0.3,0,0.6-0.3,0.6-0.6V1.4c0-0.3-0.2-0.6-0.6-0.6
	L253,0.8"/>
<path class="st0" d="M367.2,0.8c-0.3,0-0.6,0.2-0.6,0.6v44.1c0,0.3,0.3,0.6,0.6,0.6h24.6c0.3,0,0.6-0.2,0.6-0.6v-4.7
	c0-0.3-0.3-0.6-0.6-0.6c-3.3,0-18.2,0-18.6,0c0-0.5,0-13.4,0-13.9c0.4,0,14.5,0,17.5,0c0.3,0,0.6-0.2,0.6-0.6V21
	c0-0.3-0.3-0.6-0.6-0.6c-3.1,0-17.1,0-17.5,0c0-6.7,0-7.2,0-13.8c5.2,0,0,0,18.7,0c0.3,0,0.6-0.3,0.6-0.6V1.4c0-0.3-0.2-0.6-0.6-0.6
	L367.2,0.8"/>
<path class="st0" d="M405.1,0.6c-0.3,0-0.6,0.2-0.6,0.6v44.4c0,0.3,0.3,0.6,0.6,0.6h5.4c0.3,0,0.6-0.3,0.6-0.6V1.2
	c0-0.3-0.2-0.6-0.6-0.6H405.1"/>
<path class="st0" d="M195.7,46c0.3,0,0.5-0.3,0.4-0.5L181.8,1.3c-0.1-0.3-0.4-0.5-0.7-0.5h-7.9c-0.3,0-0.6,0.2-0.7,0.5l-14.3,44.1
	c-0.1,0.3,0.1,0.5,0.4,0.5h5.6c0.3,0,0.6-0.2,0.7-0.5l12.3-37.9l12.3,37.9c0.1,0.3,0.4,0.5,0.7,0.5h5.5"/>
<path class="st0" d="M111.4,0.8c-0.3,0-0.6,0.3-0.6,0.6c0,4.4,0,0.3,0,29.6c0,5.4-4.4,9.5-10.2,9.5c-5.8,0-10.2-4.1-10.2-9.5
	c0,0,0-25.5,0-29.6c0-0.3-0.3-0.6-0.6-0.6c-1.2,0-4,0-5.3,0c-0.3,0-0.6,0.2-0.6,0.6c0,4.2,0,29.6,0,29.6c0,9.2,7.5,16,16.7,16
	s16.7-6.8,16.7-16c0-28.3,0-26.9,0-29.6c0-0.3-0.3-0.6-0.6-0.6C115.4,0.8,112.6,0.8,111.4,0.8"/>
<path class="st0" d="M358.7,1.2c0.1-0.2,0-0.4-0.2-0.4h-6.9c-0.3,0-0.7,0.2-0.9,0.4l-16.1,20V1.4c0-0.3-0.2-0.6-0.6-0.6h-5.4
	c-0.3,0-0.6,0.3-0.6,0.6v44.3c0,0.3,0.3,0.6,0.6,0.6h5.4c0.3,0,0.6-0.3,0.6-0.6V25.8l16,19.8c0.2,0.3,0.6,0.4,0.9,0.4h6.9
	c0.2,0,0.4-0.3,0.2-0.4l-17.9-22.1L358.7,1.2"/>
<path class="st0" d="M320.6,1.2c0.1-0.2,0-0.4-0.2-0.4h-6.9c-0.4,0-0.7,0.2-0.9,0.4l-16.1,20V1.4c0-0.3-0.3-0.6-0.6-0.6h-5.4
	c-0.3,0-0.6,0.3-0.6,0.6v44.3c0,0.3,0.2,0.6,0.6,0.6h5.4c0.3,0,0.6-0.3,0.6-0.6V25.8l16,19.8c0.2,0.3,0.6,0.4,0.9,0.4h6.9
	c0.2,0,0.3-0.3,0.2-0.4l-17.9-22.1L320.6,1.2"/>
<path class="st0" d="M0.4,46.2c-0.3,0-0.5-0.3-0.4-0.5L14.3,1.5C14.4,1.2,14.7,1,15.1,1H23c0.3,0,0.6,0.2,0.7,0.5L38,45.6
	c0.1,0.3-0.1,0.5-0.4,0.5H32c-0.3,0-0.6-0.2-0.7-0.5L19,7.7L6.7,45.6c-0.1,0.3-0.4,0.5-0.7,0.5H0.4"/>
<path class="st0" d="M45.4,0.8c-0.3,0-0.6,0.3-0.6,0.6v4.3c0,0.3,0.2,0.6,0.6,0.6h20.9c-3.8,5.6-19.7,31.3-22.1,35.3
	c-0.2,0.3-0.3,0.7-0.3,1.1v2.6c0,0.3,0.2,0.6,0.6,0.6h29.8c0.3,0,0.6-0.2,0.6-0.6V41c0-0.3-0.3-0.6-0.6-0.6c-3.1,0-17.5,0-22,0
	l22-35.2c0.2-0.3,0.3-0.7,0.3-1V1.3c0-0.3-0.3-0.6-0.6-0.6H45.4"/>
<path class="st0" d="M230.1,0c-4.7,0.1-8.7,1.6-11.4,4.4c-2.2,2.3-3.3,5.2-3.3,8.4c0.1,5.9,4.1,9.8,12.2,12.5
	c5.9,2.1,8.2,4.4,8.2,8.4c0,1.9-0.6,3.7-1.8,4.9c-1.5,1.6-4,2.5-7,2.5c-3.5,0.1-7.2-0.8-10.1-2.5c-0.2-0.1-0.5,0-0.6,0.3l-0.7,5
	c-0.1,0.3,0.1,0.7,0.4,0.8c2.8,1.4,7,2.3,10.7,2.3c11.8-0.2,15.9-7.7,15.8-13.8c-0.1-6.3-3.5-10.2-11.8-13.3
	c-6.5-2.4-8.7-4.1-8.7-7.7c0-3.1,2.4-6.3,7.9-6.4c4-0.1,7,1.2,8.2,1.9c0.2,0.1,0.6,0.1,0.6-0.2l0.8-5c0.1-0.3-0.1-0.7-0.4-0.8
	C236.6,0.5,233.6,0,230.1,0"/>
<path class="st0" d="M140.8,0c-4.7,0.1-8.7,1.6-11.4,4.4c-2.2,2.3-3.3,5.2-3.3,8.4c0.1,5.9,4.1,9.8,12.2,12.5
	c5.9,2.1,8.2,4.4,8.2,8.4c0,1.9-0.6,3.7-1.8,4.9c-1.5,1.6-4,2.5-7,2.5c-3.5,0.1-7.2-0.8-10.1-2.5c-0.2-0.1-0.5,0-0.6,0.3l-0.7,5
	c0,0.3,0.1,0.7,0.4,0.8c2.8,1.4,7.1,2.3,10.7,2.3c11.8-0.2,15.9-7.7,15.8-13.8c-0.1-6.3-3.5-10.2-11.8-13.3
	c-6.5-2.4-8.7-4.1-8.7-7.7c0-3.1,2.4-6.3,7.9-6.4c4-0.1,7,1.2,8.2,1.9c0.2,0.1,0.6,0.1,0.6-0.2l0.8-5c0-0.3-0.1-0.7-0.4-0.8
	C147.3,0.5,144.2,0,140.8,0"/>
<g>
	<rect x="181.2" y="106.2" class="st0" width="25.5" height="5"/>
	<rect x="183.4" y="96.6" class="st0" width="20.9" height="4.8"/>
	<rect x="183.4" y="115.9" class="st0" width="20.9" height="4.9"/>
	<rect x="183.4" y="125.8" class="st0" width="20.9" height="4.9"/>
	<path class="st0" d="M183.4,135.6v21h20.9v-21H183.4z M199.4,151.9h-11.1v-11.7h11.1V151.9z"/>
	<path class="st0" d="M292.1,106v5h-29.5v-5H292.1z M290,96.2v4.9h-25.2v-4.9H290z M290,115.5v4.9h-25.1v-4.9H290z M290,125.6v4.8
		h-25.2v-4.8C264.8,125.6,290,125.6,290,125.6z M290,135.6v20.9h-25.2v-20.9H290z M285,140.3h-15v11.4h15V140.3z M305.9,157.8v-37.4
		h-11.5v-4.9h11.5v-21h5.8v21h14.2v4.9h-14.2v37.4H305.9z"/>
	<rect x="142.9" y="110" transform="matrix(0.2127 -0.9771 0.9771 0.2127 8.982 236.5037)" class="st0" width="16.8" height="5.4"/>
	
		<rect x="130.7" y="104.3" transform="matrix(0.9771 -0.2127 0.2127 0.9771 -20.9166 30.9518)" class="st0" width="5.4" height="16.8"/>
	<polygon class="st0" points="150,106.4 155.4,106.4 161.1,106.4 161.1,101.3 145.1,101.3 145.1,94.6 139.4,94.6 139.4,101.3 
		123.7,101.3 123.7,106.4 129.2,106.4 134.8,106.4 	"/>
	<polygon class="st0" points="162.7,125 162.7,119.8 152.8,119.8 147.3,119.8 137.5,119.8 132,119.8 122,119.8 122,125 139.5,125 
		139.5,135.2 122.9,135.2 122.9,140.5 139.5,140.5 139.5,157.6 145.1,157.6 145.1,140.5 161.8,140.5 161.8,135.2 145.1,135.2 
		145.1,125 	"/>
	<rect x="99.8" y="107.9" class="st0" width="22.3" height="5.2"/>
	<rect x="109.5" y="94.6" class="st0" width="5.4" height="63"/>
	<path class="st0" d="M208,123.4v5.4h25.7c-2.2,5.9-8.9,18.5-27.1,23.5v5.5c14.5-3.6,22.6-11.4,27-17.6c5-7.1,6.2-13.4,6.3-13.6
		l0.6-3.2H208z"/>
	<path class="st0" d="M220.6,137.3c-1-1.4-1.9-2.8-2.5-4.1h-6c0.9,2.1,2.2,4.5,4,7c4.4,6.1,12.5,14,27,17.6v-5.5
		C233.5,149.6,225.9,144.6,220.6,137.3z"/>
	<path class="st0" d="M212.5,96.6v8.4c0,4.7-1.5,8-4.5,10.1v6.1c6.3-2.7,9.8-8.4,9.8-16.2v-8.4H212.5z"/>
	<path class="st0" d="M239.1,111.7c-0.1,0.6-0.3,1.6-1.6,1.6h-1.6c-1.6,0-1.6-1-1.6-1.8v-15h-19v5.2H229v12.5c0,4.4,3.5,4.4,4.6,4.4
		h5.4c4.2,0,5.5-2.7,6-13h-5.2C239.5,109.8,239.1,111.5,239.1,111.7z"/>
	<path class="st0" d="M114.9,110.3h-5.4c0,0.2-0.2,15.1-12.1,26.6v7.1C114.7,130.6,114.9,111.1,114.9,110.3z"/>
	<path class="st0" d="M114.9,116l-5.2,1.3c0.1,0.4,2.8,10.5,11.5,17.7v-7.5C116.5,122,114.9,116.1,114.9,116z"/>
</g>
</svg>
